<svg xmlns="http://www.w3.org/2000/svg" width="512" height="512" viewBox="0 0 512 512" style="overflow: visible;" data-bbox="48.00000000000001 171.41902782957794 416 169.16194434084406"><g data-icon="" transform="matrix(0.39960622787475586, 0, 0, 0.39960622787475586, 148.09265376722118, 44.19438771360518)" data-uid="o_fdh71j55l_7"><path d="m256.01 467.05c-58 0-105.19-47.19-105.19-105.19s47.19-105.19 105.19-105.19 105.19 47.19 105.19 105.19-47.18 105.19-105.19 105.19zm0-194.4c-49.19 0-89.21 40.02-89.21 89.21s40.02 89.21 89.21 89.21 89.21-40.02 89.21-89.21-40.02-89.21-89.21-89.21z" data-uid="o_fdh71j55l_8"></path><path d="m195.81 350.27c0-4.42 3.57-7.99 7.99-7.99s8.02 3.57 8.02 7.99v23.19c0 4.42-3.6 7.99-8.02 7.99s-7.99-3.57-7.99-7.99z" fill="rgba(68,146,123,1)" data-uid="o_fdh71j55l_9"></path><path d="m221.91 343.29c0-4.42 3.57-7.99 7.99-7.99s7.99 3.57 7.99 7.99v37.13c0 4.42-3.57 7.99-7.99 7.99s-7.99-3.57-7.99-7.99z" fill="rgba(68,146,123,1)" data-uid="o_fdh71j55l_10"></path><path d="m247.99 332.1c0-4.42 3.6-8.02 8.02-8.02s7.99 3.6 7.99 8.02v59.53c0 4.42-3.57 8.02-7.99 8.02s-8.02-3.6-8.02-8.02z" fill="rgba(68,146,123,1)" data-uid="o_fdh71j55l_11"></path><path d="m300.21 350.27c0-4.42 3.57-7.99 7.99-7.99s7.99 3.57 7.99 7.99v23.19c0 4.42-3.57 7.99-7.99 7.99s-7.99-3.57-7.99-7.99z" fill="rgba(68,146,123,1)" data-uid="o_fdh71j55l_12"></path><path d="m274.1 343.29c0-4.42 3.6-7.99 7.99-7.99 4.42 0 8.02 3.57 8.02 7.99v37.13c0 4.42-3.6 7.99-8.02 7.99-4.39 0-7.99-3.57-7.99-7.99z" fill="rgba(68,146,123,1)" data-uid="o_fdh71j55l_13"></path><path clip-rule="evenodd" d="m49.37 306.07h40.2v152.99h-40.2c-18.34 0-33.37-15.02-33.37-33.36v-86.23c0-18.37 15.03-33.4 33.37-33.4z" fill="rgba(68,146,123,1)" fill-rule="evenodd" data-uid="o_fdh71j55l_14"></path><path clip-rule="evenodd" d="m462.63 306.07h-40.17v152.99h40.17c18.37 0 33.36-15.02 33.36-33.36v-86.23c.01-18.37-14.99-33.4-33.36-33.4z" fill="rgba(68,146,123,1)" fill-rule="evenodd" data-uid="o_fdh71j55l_15"></path><path d="m483.99 305.21c1.32-9.94 2-20.12 2-30.29 0-61.43-23.92-119.18-67.36-162.62-43.43-43.43-101.19-67.35-162.62-67.35-61.44 0-119.2 23.92-162.64 67.36s-67.36 101.19-67.36 162.62c0 9.99.68 20.17 2 30.29-11.4 7.14-19.01 19.82-19.01 34.25v86.23c0 22.26 18.11 40.37 40.37 40.37h40.2c3.87 0 7-3.13 7-7v-153c0-3.87-3.13-7-7-7h-21.14c-1.02-7.99-1.54-16.1-1.54-24.15 0-104.27 84.84-189.1 189.13-189.1 104.27 0 189.1 84.83 189.1 189.1 0 8.18-.54 16.29-1.55 24.15h-21.1c-3.87 0-7 3.13-7 7v152.99c0 3.87 3.13 7 7 7h40.17c22.26 0 40.37-18.11 40.37-40.37v-86.23c-.01-14.42-7.62-27.1-19.02-34.25zm-401.43 146.85h-25.2v-87.53c0-4.42-3.58-7.99-7.99-7.99s-7.99 3.58-7.99 7.99v86.29c-10.64-3.39-18.37-13.37-18.37-25.12v-86.23c0-14.55 11.83-26.39 26.36-26.39h33.19zm173.45-382.23c-113.1 0-205.12 92-205.12 205.09 0 8.05.49 16.15 1.43 24.15h-2.96c-2.02 0-4.01.15-5.95.44-.94-8.23-1.42-16.48-1.42-24.59 0-117.99 96.01-213.99 214.02-213.99 118 0 213.99 96 213.99 213.99 0 8.25-.48 16.5-1.41 24.59-1.95-.29-3.93-.44-5.96-.44h-2.94c.93-7.89 1.41-16 1.41-24.15 0-113.08-92-205.09-205.09-205.09zm232.98 355.87c0 11.75-7.73 21.73-18.37 25.12v-86.29c0-4.42-3.58-7.99-7.99-7.99s-7.99 3.58-7.99 7.99v87.53h-25.17v-138.98h33.17c14.54 0 26.36 11.84 26.36 26.39v86.23z" data-uid="o_fdh71j55l_16"></path></g><path text-anchor="start" offset="0" fill="#39755d" space="preserve" font-scale="contain" font-size="40" font-family="Open Sans Condensed Light" text="AI" font-style="normal" font-weight="400" data-fl-textpath="" transform="matrix(2.2675328254699707, 0, 0, 2.2675328254699707, 140.9338786481925, 312.1154321962112)" data-uid="o_fdh71j55l_17" d="M 15.88 0L 13.93 0L 11.41-10.35L 4.47-10.35L 1.99 0L 0 0L 6.88-28.55L 8.85-28.55L 15.88 0ZM 4.84-12.29L 10.96-12.29L 8.44-22.93Q 8.05-24.73  7.83-26.33L 7.83-26.33Q 7.66-24.63  7.29-22.93L 7.29-22.93L 4.84-12.29ZM 20.919 0L 19.009 0L 19.009-28.55L 20.919-28.55L 20.919 0Z"></path><path text-anchor="start" offset="0" fill="#329e5f" space="preserve" font-scale="contain" font-size="40" font-family="Open Sans Condensed Light" text="Listen" font-style="normal" font-weight="400" data-fl-textpath="" transform="matrix(2.2675328254699707, 0, 0, 2.2675328254699707, 206.00413521461428, 311.2310957782701)" data-uid="o_fdh71j55l_18" d="M 13.09 0L 3.13 0L 3.13-28.55L 5.04-28.55L 5.04-1.84L 13.09-1.84L 13.09 0ZM 18.577-21.19L 18.577 0L 16.717 0L 16.717-21.19L 18.577-21.19ZM 16.447-27.07L 16.447-27.07Q 16.447-27.95  16.807-28.44Q 17.167-28.93  17.737-28.93L 17.737-28.93Q 18.267-28.93  18.577-28.44Q 18.887-27.95  18.887-27.07L 18.887-27.07Q 18.887-26.23  18.577-25.73Q 18.267-25.23  17.737-25.23L 17.737-25.23Q 17.167-25.23  16.807-25.73Q 16.447-26.23  16.447-27.07ZM 32.556-5.31L 32.556-5.31Q 32.556-2.64  31.156-1.12Q 29.746 0.39  27.086 0.39L 27.086 0.39Q 25.646 0.39  24.546 0.02Q 23.456-0.35  22.856-0.8L 22.856-0.8L 22.856-2.97Q 23.576-2.25  24.766-1.81Q 25.956-1.37  27.206-1.37L 27.206-1.37Q 28.846-1.37  29.786-2.44Q 30.726-3.52  30.726-5.31L 30.726-5.31Q 30.726-6.72  30.046-7.69Q 29.376-8.65  27.476-9.88L 27.476-9.88Q 25.316-11.25  24.526-12.07Q 23.726-12.89  23.286-13.91Q 22.856-14.92  22.856-16.33L 22.856-16.33Q 22.856-18.61  24.396-20.11Q 25.936-21.6  28.316-21.6L 28.316-21.6Q 30.876-21.6  32.596-20.39L 32.596-20.39L 31.636-18.77Q 30.036-19.84  28.246-19.84L 28.246-19.84Q 26.606-19.84  25.626-18.88Q 24.646-17.91  24.646-16.33L 24.646-16.33Q 24.646-14.92  25.316-13.97Q 25.976-13.03  28.126-11.68L 28.126-11.68Q 30.236-10.29  31.016-9.46Q 31.796-8.63  32.176-7.63Q 32.556-6.62  32.556-5.31ZM 40.724-1.33L 40.724-1.33Q 41.584-1.33  42.244-1.56L 42.244-1.56L 42.244 0Q 41.384 0.39  40.044 0.39L 40.044 0.39Q 36.754 0.39  36.754-4.51L 36.754-4.51L 36.754-19.55L 34.844-19.55L 34.844-20.64L 36.714-21.19L 37.324-26.23L 38.614-26.23L 38.614-21.19L 41.974-21.19L 41.974-19.55L 38.614-19.55L 38.614-5.04Q 38.614-2.89  39.084-2.11Q 39.554-1.33  40.724-1.33ZM 51.623 0.39L 51.623 0.39Q 48.263 0.39  46.453-2.47Q 44.653-5.33  44.653-10.45L 44.653-10.45Q 44.653-15.88  46.263-18.74Q 47.873-21.6  50.903-21.6L 50.903-21.6Q 53.533-21.6  55.063-19.09Q 56.583-16.58  56.583-12.32L 56.583-12.32L 56.583-10.61L 46.543-10.61Q 46.583-5.98  47.853-3.67Q 49.123-1.37  51.703-1.37L 51.703-1.37Q 53.693-1.37  55.903-2.68L 55.903-2.68L 55.903-0.88Q 53.863 0.39  51.623 0.39ZM 50.783-19.92L 50.783-19.92Q 46.953-19.92  46.583-12.29L 46.583-12.29L 54.723-12.29Q 54.723-15.78  53.663-17.85Q 52.593-19.92  50.783-19.92ZM 72.697 0L 70.857 0L 70.857-14.61Q 70.857-19.88  67.737-19.88L 67.737-19.88Q 65.347-19.88  64.247-17.91Q 63.147-15.94  63.147-11.64L 63.147-11.64L 63.147 0L 61.287 0L 61.287-21.19L 62.847-21.19L 63.007-18.24L 63.187-18.24Q 63.847-19.84  65.097-20.72Q 66.347-21.6  67.777-21.6L 67.777-21.6Q 70.237-21.6  71.467-19.95Q 72.697-18.3  72.697-14.65L 72.697-14.65L 72.697 0Z"></path></svg>